<?xml version="1.0" standalone="no"?>
<!DOCTYPE svg PUBLIC "-//W3C//DTD SVG 20010904//EN"
 "http://www.w3.org/TR/2001/REC-SVG-20010904/DTD/svg10.dtd">
<svg version="1.0" xmlns="http://www.w3.org/2000/svg"
 width="547.000000pt" height="547.000000pt" viewBox="0 0 547.000000 547.000000"
 preserveAspectRatio="xMidYMid meet">
<metadata>
Created by potrace 1.11, written by Peter Selinger 2001-2013
</metadata>
<g transform="translate(0.000000,547.000000) scale(0.100000,-0.100000)"
fill="#000000" stroke="none">
<path d="M2605 5450 c5 -15 4 -20 -4 -16 -15 10 -121 -4 -121 -15 0 -4 7 -14
15 -21 25 -22 178 -199 222 -258 81 -109 143 -200 143 -210 0 -6 4 -10 8 -10
5 0 16 -15 25 -32 10 -18 31 -55 48 -83 16 -27 48 -88 70 -135 114 -241 133
-298 159 -475 11 -82 27 -189 35 -236 12 -75 12 -94 -1 -134 -13 -44 -57 -115
-76 -123 -14 -6 -45 -74 -52 -114 -4 -22 -2 -56 6 -80 10 -35 94 -192 138
-258 6 -8 15 -26 20 -39 6 -13 24 -44 40 -68 17 -24 30 -47 30 -51 0 -4 25
-47 55 -97 70 -114 92 -182 76 -237 -20 -66 -75 -116 -186 -168 -134 -63 -148
-80 -147 -168 1 -38 6 -81 11 -95 5 -14 13 -52 17 -85 6 -53 4 -64 -16 -93
-13 -17 -43 -40 -68 -51 l-44 -20 49 -47 c108 -100 110 -142 17 -241 -22 -23
-38 -55 -48 -93 -8 -31 -18 -62 -22 -69 -4 -6 -8 -93 -8 -192 -1 -164 -3 -185
-23 -221 -26 -50 -122 -142 -156 -150 -14 -4 -65 -2 -114 4 -48 6 -214 11
-368 11 l-280 0 -100 -31 c-55 -17 -124 -42 -153 -56 -138 -67 -363 -348 -485
-608 -21 -44 -42 -88 -48 -97 -17 -33 -9 -43 64 -71 39 -16 81 -32 92 -37 34
-13 98 -37 135 -49 28 -9 36 -8 43 4 6 11 13 13 26 6 20 -11 41 3 41 26 0 11
5 11 21 3 11 -7 22 -10 24 -8 2 2 18 42 35 88 29 79 88 209 100 220 3 3 27 40
53 82 93 151 209 279 300 333 63 36 163 41 510 26 268 -13 359 -9 422 18 147
63 223 116 250 175 33 74 41 124 33 224 -5 57 -5 124 1 162 6 36 13 87 16 113
8 63 27 106 60 137 45 42 68 96 60 146 -5 34 -17 54 -55 93 -26 27 -54 51 -62
53 -19 7 6 35 46 52 76 32 89 90 56 244 -28 130 -23 160 35 218 25 24 50 44
57 44 7 0 53 20 103 44 73 36 97 53 124 91 30 42 33 53 33 114 -1 76 -41 177
-95 239 -8 9 -29 44 -47 77 -18 32 -48 83 -66 112 -19 28 -34 54 -34 57 0 3
-20 40 -45 82 -25 41 -45 78 -45 80 0 3 -11 20 -24 37 -67 91 -55 208 30 297
49 50 74 110 74 177 0 65 -15 185 -35 283 -7 36 -19 106 -25 155 -22 163 -44
227 -146 442 -24 51 -44 95 -44 97 0 10 68 -24 225 -113 44 -25 197 -123 205
-131 3 -3 30 -24 60 -47 152 -118 259 -216 371 -343 93 -105 224 -284 306
-419 36 -59 183 -352 183 -365 0 -6 6 -23 14 -37 24 -47 95 -290 115 -394 40
-213 50 -578 22 -840 -20 -191 -23 -207 -59 -345 -58 -226 -205 -555 -319
-717 -13 -17 -23 -34 -23 -37 0 -10 -77 -116 -176 -243 -66 -84 -283 -300
-349 -348 -22 -16 -56 -44 -75 -62 -19 -18 -40 -33 -46 -33 -6 0 -18 -7 -25
-16 -25 -30 -174 -120 -309 -187 -225 -111 -247 -120 -435 -177 -44 -13 -181
-40 -205 -40 -12 0 -20 -7 -20 -16 0 -14 -7 -15 -45 -10 -48 8 -89 0 -80 -14
3 -4 -19 -11 -47 -15 -90 -12 -92 -27 -3 -20 117 9 291 40 425 75 144 39 231
65 270 80 25 10 74 29 110 43 108 42 312 137 395 185 57 34 235 156 306 212
99 77 270 233 330 301 35 40 82 93 105 118 22 25 63 77 90 114 27 37 61 84 76
105 30 41 38 54 94 157 115 216 200 417 245 580 85 313 104 456 103 780 0 288
-14 406 -76 665 -16 69 -69 241 -88 285 -4 11 -14 36 -21 55 -22 61 -104 236
-137 295 -30 53 -164 258 -206 315 -200 271 -512 554 -786 712 -42 24 -289
149 -335 169 -220 96 -462 157 -795 199 -203 26 -183 26 -175 0z"/>
<path d="M1885 5409 c-105 -29 -237 -69 -260 -79 -11 -5 -38 -14 -60 -20 -22
-6 -49 -15 -60 -20 -11 -4 -42 -16 -70 -26 -114 -40 -119 -43 -101 -63 9 -10
62 -41 119 -70 56 -29 121 -64 144 -79 23 -15 71 -45 105 -66 220 -138 464
-354 606 -535 53 -67 125 -199 153 -277 20 -59 64 -306 75 -434 7 -73 -4 -106
-55 -160 -13 -14 -32 -45 -43 -69 -32 -70 -20 -122 57 -246 14 -22 30 -49 35
-60 6 -11 19 -33 29 -50 10 -16 35 -58 55 -92 20 -35 53 -91 73 -125 30 -52
37 -75 41 -131 l4 -68 -44 -42 c-24 -23 -61 -48 -83 -56 -60 -21 -124 -61
-142 -88 -21 -32 -20 -90 2 -181 16 -67 17 -76 3 -105 -14 -30 -37 -47 -80
-61 -26 -8 -22 -41 7 -54 28 -13 85 -87 85 -111 0 -17 -20 -50 -62 -103 -42
-52 -59 -134 -59 -282 0 -142 -6 -163 -61 -216 -70 -66 -60 -65 -423 -66
l-330 0 -110 -38 c-140 -47 -185 -68 -254 -119 -62 -45 -199 -180 -246 -241
-75 -98 -245 -357 -245 -373 0 -23 39 -56 177 -150 97 -66 114 -74 128 -63 9
8 28 14 41 15 14 0 29 7 33 14 5 8 13 11 19 7 10 -6 82 72 82 88 0 3 19 37 42
74 180 292 286 414 456 530 l84 57 196 3 c109 2 248 -1 311 -6 340 -27 551
120 526 366 -7 77 10 248 31 298 7 16 31 52 53 79 34 42 41 57 41 94 0 51 -34
109 -75 131 -34 18 -31 34 9 48 51 19 70 55 68 130 -1 35 -7 72 -12 82 -6 10
-10 48 -10 83 0 54 4 68 25 91 22 24 139 86 162 86 19 0 91 71 108 106 34 73
4 182 -83 303 -16 22 -35 54 -42 71 -7 16 -16 30 -21 30 -5 0 -9 4 -9 9 0 8
-22 47 -71 129 -9 15 -28 50 -43 77 -16 28 -33 56 -40 64 -6 8 -11 44 -11 82
0 61 3 70 33 106 82 96 85 105 78 222 -5 108 -13 166 -40 327 -41 241 -185
540 -354 737 -68 79 -120 135 -156 167 -22 19 -72 63 -110 98 -39 35 -105 89
-146 120 -41 31 -92 71 -113 89 -43 39 -68 40 -172 12z"/>
<path d="M931 4985 c-23 -13 -49 -21 -56 -19 -14 6 -64 -17 -87 -38 -7 -7 -31
-26 -53 -43 -93 -70 -165 -135 -165 -150 0 -13 115 -75 138 -75 7 0 20 -4 30
-9 29 -15 65 -28 122 -47 30 -10 59 -22 65 -26 5 -4 17 -8 28 -8 10 0 44 -12
75 -26 69 -31 161 -74 184 -85 10 -5 25 -9 34 -9 22 0 161 -78 209 -118 6 -5
16 -11 21 -13 6 -2 33 -23 60 -45 27 -23 78 -66 114 -96 35 -30 83 -77 105
-104 22 -28 50 -64 63 -80 13 -16 43 -71 68 -122 65 -136 61 -196 -21 -296
-79 -97 -75 -90 -75 -165 0 -41 4 -71 10 -71 6 0 10 -7 10 -15 0 -15 68 -117
82 -123 5 -2 8 -12 8 -22 0 -9 7 -23 15 -30 8 -7 15 -20 16 -29 0 -9 9 -29 19
-46 70 -112 93 -199 76 -288 -8 -43 -64 -100 -123 -128 l-43 -19 0 -104 c0
-62 -6 -122 -15 -152 -8 -27 -15 -63 -15 -80 0 -26 -6 -34 -45 -53 -31 -15
-45 -29 -45 -43 0 -11 20 -38 45 -60 41 -37 60 -78 35 -78 -5 0 -10 -8 -10
-17 0 -10 -7 -26 -15 -36 -7 -10 -19 -42 -25 -70 -17 -74 -36 -112 -70 -141
l-30 -25 -264 0 c-146 0 -273 -4 -283 -9 -29 -15 -208 -72 -227 -72 -14 0 -30
-6 -72 -29 -50 -27 -96 -67 -126 -108 -19 -26 -63 -73 -97 -103 -63 -55 -111
-102 -187 -182 -23 -24 -46 -47 -53 -53 -6 -5 -31 -38 -56 -73 -25 -34 -52
-62 -60 -62 -30 0 -16 -49 28 -97 152 -167 194 -206 213 -198 11 4 29 7 40 6
12 -1 24 5 27 13 4 9 17 16 29 16 16 1 34 16 58 51 175 251 350 447 490 548
91 66 82 65 465 71 193 3 359 9 370 14 84 34 135 62 163 89 57 55 65 84 66
236 1 141 11 187 50 246 11 17 27 35 34 41 9 6 15 30 15 62 1 46 -3 56 -32 86
l-32 33 25 20 c47 38 54 94 24 210 -18 71 0 96 97 144 85 41 125 69 125 87 0
6 5 12 11 14 6 2 11 33 11 76 0 56 -5 78 -21 101 -12 16 -21 31 -21 34 0 2
-23 38 -50 80 -27 42 -50 79 -50 82 0 3 -16 31 -35 61 -19 30 -35 57 -35 61 0
3 -11 20 -23 37 -47 61 -45 139 4 196 45 51 71 118 66 165 -6 43 -23 134 -38
203 -5 23 -9 60 -9 82 0 21 -4 42 -10 45 -5 3 -10 16 -10 29 0 12 -7 31 -15
42 -8 10 -15 27 -15 36 0 24 -106 219 -129 238 -3 3 -19 23 -35 45 -67 91
-219 227 -346 307 -78 50 -228 128 -245 128 -8 0 -15 5 -15 10 0 6 -6 10 -14
10 -8 0 -29 8 -48 17 -61 31 -68 33 -87 33 -11 0 -22 4 -25 9 -4 5 -32 17 -64
26 -31 9 -65 21 -74 26 -10 5 -26 9 -37 9 -10 0 -34 6 -52 14 -66 26 -110 27
-158 1z"/>
</g>
</svg>
